<?xml version="1.0" encoding="UTF-8"?>
<svg id="Layer_2" data-name="Layer 2" xmlns="http://www.w3.org/2000/svg" viewBox="0 0 219.15 71.07">
  <defs>
    <style>
      .cls-1 {
        fill: #0065c1;
      }

      .cls-2 {
        fill: #f955af;
      }
    </style>
  </defs>
  <g id="Layer_1-2" data-name="Layer 1">
    <g>
      <g>
        <path class="cls-1" d="m45.54,11.3c-.48-1.11-1.05-2.16-1.7-3.14-.66-.98-1.4-1.88-2.23-2.71-1.66-1.67-3.62-3.01-5.8-3.99-2.18-.97-4.56-1.46-7.08-1.46H5.58c-.71.03-1.41.19-2.09.5-.67.3-1.26.72-1.76,1.23-.5.51-.89,1.12-1.16,1.8-.28.69-.42,1.44-.42,2.23v40.56c.04-.07.09-.13.13-.2,1.62-2.32,3.93-3.93,6.86-4.8,1.18-.35,2.25-.57,3.28-.68.4-.04.79-.06,1.18-.07V11.52h16.44c1.03.04,1.99.21,2.87.51.91.3,1.72.74,2.4,1.3.73.6,1.3,1.47,1.71,2.58.39,1.05.58,2.14.58,3.21,0,.94-.18,1.82-.54,2.63-.25.56-.56,1.08-.94,1.55,3.75.63,7.08,2.49,9.95,5.55.69-1.09,1.28-2.25,1.75-3.48.75-1.93,1.12-4.04,1.12-6.28,0-2.94-.48-5.56-1.42-7.77Z"/>
        <g>
          <path class="cls-2" d="m22.95,57.45c-.44.13-.54.36-.27.71.21.28.45.52.76.69,1.73,1.01,3.52.76,5.27-.02,1.46-.66,2.65-1.64,3.03-3.26.09-.4.26-.9-.13-1.16-.4-.26-.75.17-1.07.38-1.61,1.07-3.36,1.82-5.26,2.25-.77.18-1.56.23-2.34.39Z"/>
          <path class="cls-2" d="m30.62,50.1c.12-.21.24-.39.35-.55.44-.63.85-.93,1.44-.97.36-.03.8.04,1.34.18.21.05.44.15.59-.03.15-.19-.02-.38-.13-.56-.21-.3-.51-.54-.86-.69-.64-.29-1.45-.32-2.21-.05-1.13.41-1.71,1.38-1.49,2.54.05.24.06.54.39.58.32.04.45-.21.58-.44Z"/>
          <path class="cls-2" d="m17.23,54.9c1.25-1.59,1.49-1.67,3.34-1.07.02,0,.04.02.07.02.21.07.43.11.61-.05.21-.18.07-.39,0-.57-.46-1.09-1.64-1.56-2.82-1.12-1.22.44-2.01,1.55-1.87,2.61.02.18.02.4.23.46.22.07.34-.13.45-.27Z"/>
          <path class="cls-2" d="m11.32,60.3s-3.23-1.22-5.33-6.02c0-.01-.08-.18-.18-.41-.1-.22-.2-.44-.3-.66-.5-1.33-.98-2.66-1.49-4.02,0,.2.02.47.04.78.01.19.05.72.14,1.42.04.3.16,1.06.4,2.06.14.58.44,1.78,1.01,3.18.22.52.46,1.03.71,1.53.13.25.27.51.41.76.06.09.33.71.43.72-1.03-.09-1.96-.26-2.9-.12-.33.05-.7.03-.98.17-.83.41-1.21.06-1.58-.61,0-.01-.01-.02-.02-.03-1.74-3.17-2.19-7.43-1.04-10.97v.23c.04-.07.09-.14.14-.21,1.73-2.47,4.2-4.2,7.32-5.13,1.26-.37,2.4-.61,3.5-.72-1.13,2.78-1.38,5.64-.92,8.55.05.33.06.52-.34.68-1.75.72-2.17,2.63-1.31,4.19.36.66.79,1.12,1.32,1.4,1.03.54,1.55-.21,2.42.23,1.03.52.74,1.72,2.08,2.57.58.37,1.02.39,1.01.51-.03.27-2.38.76-4.54-.06Z"/>
          <path class="cls-2" d="m39.14,66.41c-.9-1.31-2.03-2.3-3.34-3-1.05-.56-2.21-.94-3.5-1.15-1.92-.31-3.86-.15-5.78.1-3.02.38-6.01.93-9.06.72-.29-.02-.72-.27-.86-.02-.17.31.12.69.26,1.02.05.12.17.21.26.31.46.51,1.04.8,1.66.98.33.11.68.17,1.04.23,2.15.37,4.33.16,6.49.14.87,0,1.74.04,2.61.06,0,.07,0,.13,0,.2-.42.1-.84.16-1.25.29-2.74.89-5.53,1.34-8.41,1.21-2.3-.1-4.45-.71-6.48-1.65-.1-.05-.2-.09-.31-.14-1.14-.54-2.19-1.23-3.36-1.73-1.31-.55-2.67-.92-4.15-.72-.21.03-.48,0-.58.21-.14.27.16.4.32.54.74.67,1.44,1.39,2.2,2.05.25.22.51.44.78.64,2.14,1.6,4.48,2.81,7.11,3.54,3.31.91,6.69.99,10.14.61,2.34-.25,4.64-.62,6.93-1.18,1.39-.34,2.81-.55,4.21-.89,1.09-.26,2.2-.46,3.31-.66.71-.13.77-.27.4-.83-.2-.31-.42-.6-.63-.9Z"/>
          <path class="cls-2" d="m46.6,36.63c-.63-1.71-1.28-3.11-1.97-4.29-.67-1.14-1.39-2.07-2.19-2.87-.04-.05-.09-.09-.13-.14-.15-.15-.3-.29-.45-.43-3.66-3.26-7.81-4.73-12.38-4.29-1.45.14-2.95.47-4.48,1-.86.3-1.67.65-2.44,1.06-2.56,1.36-4.66,3.35-6.21,5.89-2.21,3.62-2.8,7.4-1.25,11.26,1.4,3.46,5.38,4.83,8.77,2.86,1.87-1.09,2.63-3.09,1.7-4.72-.17-.28-.3-.74-.67-.7-.3.03-.21.51-.33.78-.52,1.2-1.33,2.14-2.73,2.36-1.45.24-2.47-.42-3.21-1.54-1.24-1.9-.35-4.42,1.97-5.5.73-.34,1.47-.61,2.22-.79,1.77-.45,3.6-.47,5.43-.1,4.41.89,7.7,3.3,10,6.95.25.39.43.46.88.31.5-.16,1.04-.14,1.54.07,1.27.53,1.83,1.54,1.87,2.81.04,1.19-.51,2.15-1.66,2.73-.35.18-.46.35-.44.74.07,1.76-.26,3.48-.99,5.12-.82,1.85-2.03,3.43-3.54,4.82-.17.16-.54.32-.05.52.59.24,1.13.53,1.65.85,1.43.9,2.59,2.09,3.58,3.46.29.4.43.27.62-.09.42-.76.89-1.49,1.28-2.27,1.65-3.26,2.85-6.63,3.61-10.1.35-1.63.61-3.3.78-4.97.39-4.07.19-8.06-.77-10.78Z"/>
        </g>
      </g>
      <g>
        <path class="cls-1" d="m65.27,39.79c-2.43-.03-5.09-.61-7.97-1.73-1.27-.51-1.98-1.31-2.14-2.4-.03-.2-.04-.52-.04-.96s0-.93.02-1.42.02-.9.02-1.21v-.41c-.05-1.18-.08-2.36-.08-3.53s.03-2.36.08-3.53c.05-1.07.08-2.13.08-3.19,0-1.67-.06-3.33-.18-4.99-.03-.24-.04-.48-.04-.71,0-.89.19-1.69.57-2.41.38-.72,1.15-1.3,2.31-1.74.55-.21,1.08-.48,1.6-.79,1.8-1.01,3.66-1.52,5.57-1.52.68,0,1.71.13,3.08.4,1.37.26,2.84.96,4.41,2.09s2.64,2.37,3.22,3.74c.59,1.36.88,2.7.88,4.01,0,1.23-.39,2.44-1.18,3.64-.28.39-.42.74-.42,1.05,0,.27.13.59.4.94,1.08,1.51,1.62,3.12,1.62,4.82,0,.6-.16,1.66-.48,3.17-.32,1.51-1.66,3.13-4.03,4.84-1.64,1.11-4.08,1.73-7.31,1.86Zm-2.68-17.21l.32-.02c1.2-.11,2.32-.42,3.35-.92,1.03-.5,2.02-1.12,2.95-1.86.36-.29.54-.59.54-.9,0-.04-.01-.16-.04-.35-.03-.19-.19-.45-.48-.76-1.21-1.37-2.64-2.07-4.27-2.1-1.46.09-2.46.39-3.02.92-.39.36-.58.89-.58,1.58,0,.3.03.63.1.98.08.51.12,1.03.12,1.56v.75c.01.74.35,1.11,1,1.11Zm3.16,10.75l.84-.21c.48-.1.95-.23,1.41-.39.46-.16.88-.41,1.27-.75.84-.7,1.26-1.32,1.26-1.86,0-.16-.03-.33-.1-.51-.21-.51-.57-.84-1.06-.98-.36-.1-.74-.15-1.14-.15-.33,0-.55.02-.66.06-1.55.53-3.14.81-4.77.86h-.08c-.65,0-.98.51-.98,1.52s.57,1.68,1.7,1.99c.47.1,1.23.24,2.3.43Z"/>
        <path class="cls-1" d="m89.54,39.81c-4.99,0-8.15-2.68-9.47-8.05-.4-1.91-.64-5.74-.72-11.5-.05-3.27-.08-5.18-.08-5.74,0-1.14.22-2.23.66-3.28.71-1.37,1.68-2.06,2.92-2.06.19,0,.37.01.56.04.76.17,1.38.58,1.86,1.22.41.56.62,1.21.62,1.97l-.02.32c-.11,1.38-.16,2.85-.16,4.41,0,.96.02,1.95.06,2.98.04,1.37.06,2.61.06,3.72.01,2,.3,3.95.86,5.84.47,1.48,1.28,2.37,2.44,2.65.23.06.45.09.68.09.92,0,1.82-.44,2.68-1.33,1.04-1.21,1.7-2.63,1.96-4.26.36-1.85.6-3.75.72-5.67.12-1.93.18-3.86.18-5.8v-.26c0-.93.07-1.85.2-2.76.45-1.97,1.55-3.01,3.28-3.13,1.84.01,3.03,1.06,3.56,3.15.08.4.12.81.12,1.22l-.04,1.93c-.04,2.13-.12,4.26-.25,6.41-.13,2.15-.4,4.26-.81,6.35-.52,2.7-1.6,5.14-3.22,7.32-2.04,2.64-4.65,4.03-7.83,4.17l-.84.02Z"/>
        <path class="cls-1" d="m113.51,39.76c-4.15,0-6.7-2.34-7.63-7.02-.23-1.28-.36-2.58-.4-3.9l-.16-3.06c-.12-1.63-.18-3.03-.18-4.22,0-1,.05-2.12.14-3.36.03-.46.05-.92.06-1.39l.18-3.38c.03-.74.19-1.46.48-2.16.67-1.36,1.61-2.03,2.82-2.03.2,0,.41.02.64.06,1.67.39,2.5,1.63,2.5,3.72,0,.34-.02.69-.06,1.03v.13c-.11,1.5-.16,2.93-.16,4.28,0,2.31.21,5.42.64,9.31l.2,2.08c.08,1.24.27,1.98.58,2.21.15.11.39.17.72.17.39,0,.89-.07,1.52-.21,1.59-.29,3.12-.75,4.61-1.39l.12-.04c.77-.37,1.6-.58,2.46-.64,1.75.03,2.9.88,3.44,2.55.11.4.16.78.16,1.16,0,1.16-.55,2.15-1.64,2.98-.4.26-.82.47-1.26.64-2.62,1.27-5.41,2.08-8.39,2.42-.48.06-.95.09-1.4.09Z"/>
        <path class="cls-1" d="m148.22,39.76c-1.46,0-2.57-.93-3.34-2.78-.21-.59-.44-1.53-.68-2.85l-.18-.96c-.17-.97-.41-1.57-.72-1.8-.17-.14-.47-.21-.88-.21-.27,0-.58.03-.94.09-1.17.17-2.34.37-3.5.6-.84.16-1.69.31-2.54.45-.6.06-.96.4-1.08,1.03-.21.93-.33,1.87-.36,2.83-.08,2.23-.97,3.43-2.66,3.62h-.24c-1.6,0-2.72-.93-3.36-2.78-.15-.61-.22-1.24-.22-1.88,0-.43.25-1.93.74-4.5.93-4.94,2.48-9.85,4.63-14.73.84-1.93,2.01-3.6,3.5-5.01,1.23-1.08,2.5-1.63,3.82-1.63.07,0,.46.01,1.18.04s1.69.66,2.9,1.91c1.09,1.18,1.88,2.56,2.34,4.13.93,2.9,1.81,5.81,2.61,8.73.81,2.93,1.44,5.9,1.91,8.93l.14.81c.19.74.28,1.35.28,1.82,0,.96-.21,1.82-.63,2.58-.42.76-1.05,1.26-1.89,1.49-.29.06-.57.09-.82.09Zm-11.54-14.81l4.99-.94c-.35-1.93-.85-3.72-1.5-5.37l-.06-.17c-.35.09-.59.22-.74.4-.15.18-.25.37-.32.57l-2.36,5.52Z"/>
        <path class="cls-1" d="m173.75,39.76c-1.46,0-2.57-.93-3.34-2.78-.21-.59-.44-1.53-.68-2.85l-.18-.96c-.17-.97-.41-1.57-.72-1.8-.17-.14-.47-.21-.88-.21-.27,0-.58.03-.94.09-1.17.17-2.34.37-3.5.6-.84.16-1.69.31-2.54.45-.6.06-.96.4-1.08,1.03-.21.93-.33,1.87-.36,2.83-.08,2.23-.97,3.43-2.66,3.62h-.24c-1.6,0-2.72-.93-3.36-2.78-.15-.61-.22-1.24-.22-1.88,0-.43.25-1.93.74-4.5.93-4.94,2.48-9.85,4.63-14.73.84-1.93,2.01-3.6,3.5-5.01,1.23-1.08,2.5-1.63,3.82-1.63.07,0,.46.01,1.18.04s1.69.66,2.9,1.91c1.09,1.18,1.88,2.56,2.34,4.13.93,2.9,1.81,5.81,2.61,8.73.81,2.93,1.44,5.9,1.91,8.93l.14.81c.19.74.28,1.35.28,1.82,0,.96-.21,1.82-.63,2.58-.42.76-1.05,1.26-1.89,1.49-.29.06-.57.09-.82.09Zm-11.54-14.81l4.99-.94c-.35-1.93-.85-3.72-1.5-5.37l-.06-.17c-.35.09-.59.22-.74.4-.15.18-.25.37-.32.57l-2.36,5.52Z"/>
        <path class="cls-1" d="m186.59,39.76c-4.15,0-6.7-2.34-7.63-7.02-.23-1.28-.36-2.58-.4-3.9l-.16-3.06c-.12-1.63-.18-3.03-.18-4.22,0-1,.05-2.12.14-3.36.03-.46.05-.92.06-1.39l.18-3.38c.03-.74.19-1.46.48-2.16.67-1.36,1.61-2.03,2.82-2.03.2,0,.41.02.64.06,1.67.39,2.5,1.63,2.5,3.72,0,.34-.02.69-.06,1.03v.13c-.11,1.5-.16,2.93-.16,4.28,0,2.31.21,5.42.64,9.31l.2,2.08c.08,1.24.27,1.98.58,2.21.15.11.39.17.72.17.39,0,.89-.07,1.52-.21,1.59-.29,3.12-.75,4.61-1.39l.12-.04c.77-.37,1.6-.58,2.46-.64,1.75.03,2.9.88,3.44,2.55.11.4.16.78.16,1.16,0,1.16-.55,2.15-1.64,2.98-.4.26-.82.47-1.26.64-2.62,1.27-5.41,2.08-8.39,2.42-.48.06-.95.09-1.4.09Z"/>
        <path class="cls-1" d="m209.3,39.79c-.73,0-1.73-.21-2.98-.62-1.26-.41-2.75-1.84-4.49-4.28-1.34-2.03-2.04-4.28-2.1-6.76-.04-.9-.06-1.8-.06-2.7,0-1.6.09-3.41.26-5.45.17-2.03.6-4.26,1.28-6.69.37-1.43.85-2.4,1.42-2.91.83-.74,2.47-1.11,4.93-1.11.71,0,1.41.04,2.11.12.7.08,1.39.12,2.07.12s1.38-.04,2.06-.11c.63-.1,1.25-.15,1.88-.15h.24c1.82.16,2.88,1.08,3.18,2.76.03.21.04.43.04.64,0,.64-.18,1.27-.54,1.88s-.98,1.05-1.86,1.31c-.52.13-1.3.21-2.32.25-1.03.04-2.06.06-3.08.08-1.22,0-2.05.03-2.5.09l-.32.02c-.31.01-.59.08-.85.18-.26.11-.46.35-.59.74l-.08.3c-.24.7-.36,1.29-.36,1.78,0,.8.17,1.25.5,1.35.17.06.43.09.76.09.55.04,1.1.07,1.64.09.69.03,1.39.07,2.08.13,2.15.27,3.3,1.33,3.44,3.17v.06c0,.89-.31,1.65-.94,2.3-.63.65-1.47,1.03-2.52,1.15-.74.04-1.46.06-2.18.06l-1.1-.02-1.44-.02c-.09.29-.14.56-.14.81,0,.49.2,1.09.6,1.8.59,1.26,1.23,1.88,1.92,1.88.51,0,1.15-.26,1.92-.79l.76-.49c.56-.4,1.15-.75,1.76-1.05.48-.21.95-.32,1.42-.32.28,0,.67.07,1.16.2s.99.52,1.48,1.17c.51.71.76,1.49.76,2.33,0,.77-.27,1.45-.8,2.03-1.75,1.76-3.52,3.05-5.31,3.88-1.04.49-2.08.73-3.12.73Z"/>
      </g>
      <g>
        <g>
          <path class="cls-2" d="m93,52.24l-.72-.25.71-.29c1.12-.44,1.87-1.54,1.87-2.74,0-2.6-1.74-4.1-4.78-4.1h-8.02v15.53h7.31c3.87,0,6-1.6,6-4.52,0-1.87-.78-3.07-2.37-3.64Zm-8.13-5.17h4.55c1.23,0,2.64.23,2.64,2.03,0,1.32-.86,2.04-2.44,2.04h-4.76v-4.08Zm4.78,11.16h-4.78v-4.92h4.84c1.83,0,2.84.82,2.84,2.33s-1.2,2.59-2.9,2.59Z"/>
          <path class="cls-2" d="m102.01,48.72c-3.3,0-5.01,1.19-5.18,3.62h2.5c.27-1.18,1.11-1.77,2.52-1.77,1.49,0,2.41.59,2.41,1.53,0,1.12-.8,1.43-2.37,1.64-3.5.46-5.48.87-5.48,3.98,0,1.93,1.37,2.99,3.87,2.99,1.49,0,2.79-.47,3.57-1.29l.48-.5.05.68c.02.26.06.55.13.79h2.54v-7.26c0-3.1-1.51-4.41-5.04-4.41Zm2.31,7.43c-.02,1.62-1.48,2.88-3.3,2.88-1.23,0-1.91-.58-1.91-1.63,0-1.38,1.05-1.84,2.75-2.15,1.22-.22,1.71-.38,1.98-.62l.52-.51-.04,2.03Z"/>
          <path class="cls-2" d="m115.77,48.72c-1.45,0-2.58.57-3.46,1.74l-.55.74v-6.53h-2.65v15.73h2.58l.04-2.16.54.84c.72,1.1,1.77,1.63,3.23,1.63,3.1,0,5.11-2.4,5.11-6.12s-1.9-5.87-4.84-5.87Zm-1.04,9.99c-1.79,0-3.1-1.56-3.1-3.71,0-3.45,1.67-4.18,3.08-4.18,2.09,0,3.15,1.34,3.15,3.98,0,2.3-1.28,3.91-3.13,3.91Z"/>
          <path class="cls-2" d="m130.4,49.04v6.99c0,1.46-1.2,2.52-2.84,2.52-1.1,0-2.41-.44-2.41-2.52v-6.99h-2.7v7.45c0,2.37,1.75,4.03,4.27,4.03,1.49,0,2.71-.6,3.1-1.52l.58-1.36v3.41c0,1.86-1.33,2.86-2.59,2.86-1.73,0-2.76-.82-2.88-2.28h-2.48c.12,2.86,1.95,4.42,5.22,4.42s5.44-2.03,5.44-5.05v-11.97h-2.71Z"/>
          <path class="cls-2" d="m148.46,58.6c-2.85,0-4.43-2.13-4.43-5.97s1.64-5.96,4.6-5.96c1.8,0,3.34,1.16,3.89,2.91h2.96c-.48-3.16-3.2-5.25-6.88-5.25-4.66,0-7.56,3.25-7.56,8.49s2.88,8.14,7.51,8.14c3.54,0,6.1-2.06,6.9-5.52h-2.93c-.57,2.06-1.98,3.16-4.08,3.16Z"/>
          <path class="cls-2" d="m162.2,48.72c-3.3,0-5,1.19-5.18,3.62h2.51c.26-1.18,1.11-1.77,2.51-1.77,1.49,0,2.41.59,2.41,1.53,0,1.12-.8,1.43-2.37,1.64-3.5.46-5.49.87-5.49,3.98,0,1.93,1.37,2.99,3.87,2.99,1.49,0,2.79-.47,3.57-1.29l.48-.5.05.68c.02.26.06.55.13.79h2.54v-7.26c0-3.1-1.5-4.41-5.04-4.41Zm2.32,7.43c-.03,1.62-1.49,2.88-3.31,2.88-1.23,0-1.9-.58-1.9-1.63,0-1.38,1.04-1.84,2.74-2.15,1.22-.22,1.71-.38,1.98-.62l.52-.51-.03,2.03Z"/>
          <g>
            <path class="cls-2" d="m175.82,48.72c-1.29,0-2.44.12-3.46,1.61l-.56.82v-2.11h-2.5v11.36h2.7v-5.93c0-2.07,1.15-3.17,3.34-3.17.2,0,.4,0,.61.03v-2.6h-.13Z"/>
            <path class="cls-2" d="m176.53,51.99h.02v-.05s-.02.03-.02.05Z"/>
          </g>
          <g>
            <path class="cls-2" d="m176.53,51.99h.02v-.05s-.02.03-.02.05Zm5.69,6.8c-1.77,0-2.99-1.27-3.09-3.24l-.02-.31h8.64c-.08-4.33-1.95-6.53-5.57-6.53s-5.75,2.16-5.75,5.78c0,4.18,1.95,6.21,5.95,6.21,2.45,0,4.28-1.18,5.08-3.25h-2.78c-.34.8-1.29,1.33-2.45,1.33Zm-3-5.26c.14-1.73,1.28-2.89,2.84-2.89,1.39,0,2.82.9,2.87,2.9v.29s-5.74,0-5.74,0l.02-.31Z"/>
            <path class="cls-2" d="m176.53,51.99h.02v-.05s-.02.03-.02.05Z"/>
          </g>
        </g>
        <path class="cls-2" d="m72.97,48.22c-.36,2.05-1.36,3.48-3.13,4.29l-14.82.38,14.82.38c1.8.78,2.74,2.28,3.17,4.29.43-2.46,1.76-4.05,4.26-4.69-2.56-.57-3.76-2.26-4.29-4.67Z"/>
        <path class="cls-2" d="m196.85,49.06c.36,2.05,1.36,3.48,3.13,4.29l14.82.38-14.82.38c-1.8.78-2.74,2.28-3.17,4.29-.43-2.46-1.76-4.05-4.26-4.69,2.56-.57,3.76-2.26,4.29-4.67Z"/>
      </g>
    </g>
  </g>
</svg>